<?xml version="1.0" encoding="UTF-8"?>


<svg xmlns="http://www.w3.org/2000/svg" xml:space="preserve" width="210mm" height="210mm" version="1.1" style="shape-rendering:geometricPrecision; text-rendering:geometricPrecision; image-rendering:optimizeQuality; fill-rule:evenodd; clip-rule:evenodd" viewBox="0 0 21000 21000" xmlns:xlink="http://www.w3.org/1999/xlink" xmlns:xodm="http://www.corel.com/coreldraw/odm/2003">
 <defs>
  
 </defs>
 <g id="Слой_x0020_1">
  <metadata id="CorelCorpID_0Corel-Layer"></metadata>
  <g id="_1494337187408">
   <path class="fil0" d="M8423.72 7842.92l647.42 0c318.36,0 590.2,-25.62 815.84,-77.04 221.22,-50.41 397.8,-125.31 530.04,-224.85 129.03,-96.95 226.13,-224.2 291.09,-381.36 66.27,-160.32 99.5,-352.71 99.5,-576.76 0,-241.67 -33.83,-449.28 -101.28,-622.96 -66.09,-170.19 -164.83,-308.68 -295.98,-415.55 -133.72,-107.51 -309.41,-188.59 -527.04,-243.18 -221.96,-55.67 -487.02,-83.51 -795.15,-83.51 -166.83,0 -299.79,6.62 -399.05,19.67 -92.31,12.14 -152.78,28.37 -181.6,48.54 -25.63,17.94 -45.47,46 -59.48,84.25 -16.2,44.25 -24.31,101.42 -24.31,171.65l0 2301.1zm3500.55 -3059.72l-4294.01 11485.73 -140.04 -52.14 1887.8 -5049.54 -3192.67 0 0 -342.47 72.95 -2.15c258.5,-7.59 468.47,-28 629.86,-61.18 152.42,-31.34 257.71,-72.78 315.81,-124.27 56.38,-49.97 99.73,-134.84 130,-254.57 32.46,-128.4 48.71,-294.08 48.71,-496.98l0 -3732.77c0,-201.12 -16.25,-365.53 -48.71,-493.38 -30.3,-119.35 -73.84,-204.43 -130.59,-255.37 -58.1,-52.16 -163.19,-93.88 -315.22,-125.32 -161.39,-33.36 -371.37,-53.78 -629.86,-61.37l-72.95 -2.14 0 -342.49 2876.51 0c459.29,0 868.81,36.01 1228.67,107.82 363,72.44 675.97,181.5 939.06,326.96l0.29 0.3c99.89,55.7 190.49,115.35 271.81,178.93l282.54 -755.74 140.04 52.14zm-2416.06 6035.81l1034.13 -2766.1c-44.19,10.69 -89.28,20.75 -135.26,30.16 -340.75,69.78 -730.07,104.77 -1167.32,104.77l-816.04 0 0 1697.79c0,204.37 16.87,370.84 50.41,499.39 31.4,120.33 76.52,205.67 135.15,255.92 60.29,51.68 172.75,92.92 337.47,123.68 148.32,27.7 335.45,45.84 561.46,54.39zm4572.44 -1330.39l260.63 0 0 2671.5 -316.6 0 -15.81 -54.2c-113.88,-390.55 -246.1,-734.06 -396.62,-1030.27 -149.07,-293.35 -315.96,-539.64 -500.63,-738.63l0 -0.3c-182.57,-197.47 -379.73,-345.26 -591.46,-443.51 -210.32,-97.59 -435.8,-146.31 -676.37,-146.31 -163.71,0 -312.2,23.31 -445.24,69.92 -131.98,46.24 -249.63,115.51 -352.68,207.76 -102.44,91.68 -178.96,195.26 -229.72,310.87 -50.8,115.68 -76.12,244.58 -76.12,386.82 0,328 127.11,596.77 381.3,810.58l0.14 -0.17c131.42,109.77 321.61,220.06 570.72,330.66 251.12,111.5 562.95,223.44 935.63,335.63l0.58 0.3c425.78,130.47 781.55,263.63 1067.2,399.81 290.07,138.3 510.59,281.08 661.51,428.65 152.66,148.58 267.35,324.07 343.78,526.18 75.76,200.34 113.75,426.02 113.75,676.8 0,267.93 -45.56,514.39 -136.86,739.53 -91.37,225.29 -228.43,428.51 -411.36,609.83 -181.7,180.9 -387.06,316.59 -615.43,407.23 -228.67,90.77 -479.1,136.06 -750.65,136.06 -157.29,0 -306.62,-12.38 -448.54,-37.33 -141.6,-24.89 -276.32,-62.68 -404.71,-113.52l-0.06 0.16c-126.87,-49.77 -255.03,-116.62 -384.44,-200.1 -128.86,-83.11 -258.75,-182.44 -389.63,-297.56l-0.88 -0.88c-70.53,-64.39 -130.87,-116.8 -181.16,-157.37 -49.05,-39.57 -88.48,-67.99 -118.43,-85.4 -28.03,-15.62 -54.98,-27.2 -80.76,-34.74 -24.36,-7.13 -48.39,-10.7 -72.01,-10.7 -39.01,0 -76.22,13.48 -111.7,40.27 -40.84,30.83 -79.89,78.59 -117.27,143.1l0.09 0.05c-39.78,69.44 -74.26,153.33 -103.39,251.4 -29.91,100.71 -54.31,216.43 -73.16,346.9l-9.31 64.45 -337.26 0c35.22,-966.3 70.64,-1932.6 106.03,-2898.9l359.79 0 11.66 61.23c73.77,387.1 183.59,737.24 329.05,1049.96 144.86,311.44 325.25,585.69 540.72,822.33 214.23,235.29 440.71,411.5 679.55,528.4 236.93,115.96 487.43,174.05 751.68,174.05 187.01,0 356.47,-25.66 508.33,-76.76 150.95,-50.8 285.52,-127 403.68,-228.39 116.8,-100.96 204.24,-215.29 262.3,-343.05 58.15,-127.97 87.24,-270.5 87.24,-427.72 0,-168.86 -32.01,-321.98 -96.01,-459.09 -64.06,-137.24 -160.77,-260.1 -290.07,-368.33l-0.29 -0.29c-131.7,-111.6 -327.24,-225.48 -586.4,-341.96 -262.68,-118.06 -590.24,-238.43 -982.42,-361.47 -375.74,-117.7 -696.77,-241.77 -963.26,-372.55 -269.35,-132.19 -482.72,-271.27 -640.23,-417.6 -159.51,-148.92 -279.27,-318.91 -359.25,-509.88 -79.7,-190.32 -119.56,-400.61 -119.56,-630.86 0,-252.09 42.93,-486.57 128.97,-703.16 85.87,-216.17 214.35,-413.21 385.59,-590.88 171.77,-178.23 363.79,-311.92 576,-401.22 212.4,-89.37 443.67,-133.96 693.8,-133.96 132.12,0 259.59,11.32 382.61,34.14 122.65,22.75 239.99,57.02 352.14,102.96 112.18,45.14 221.27,103.04 327.2,173.39 105.96,70.36 209.02,153.33 309.14,248.64l3.23 3.22c10.35,11.16 22.92,24.11 37.59,38.96 15.83,16.03 34.13,34.33 54.71,54.9 76.79,76.05 144.16,132.69 202.24,169.68 50.28,32.03 91.09,48.13 122.48,48.13 85.59,0 153.45,-42.9 202.38,-128.64l-0.09 -0.05c28.67,-51.06 56.12,-124.99 82.31,-222.11 27.41,-101.69 52.85,-226.03 76.26,-373.31l10.07 -63.28 63.76 0z"></path>
   <path class="fil1" d="M11617.57 7250.77c50.7,0 91.19,16.04 121.33,47.99 27.94,30.53 41.91,69.46 41.91,116.94l0 100.37c0,45.53 -15.91,84.6 -47.73,116.94 -31.82,32.33 -70.37,48.5 -115.64,48.5l-60.15 0 0 260 -104 0 0 -690.74 164.28 0zm62.35 166.48c0,-18.11 -5.44,-32.6 -16.3,-43.59 -10.87,-11 -25.36,-16.56 -43.34,-16.56l-62.99 0 0 221.19 62.99 0c16.56,0 30.66,-5.82 42.17,-17.59 11.64,-11.77 17.47,-26 17.47,-42.56l0 -100.89zm348.47 -166.48c58.08,0 100.76,16.04 128.06,47.99 23.93,27.94 35.83,66.88 35.83,116.81l0 100.37c0,48.9 -18.63,90.16 -56.01,124.05l77.22 301.52 -112.15 0 -63.38 -260.13c-2.98,0.13 -6.08,0.13 -9.44,0.13l-60.54 0 0 260 -104 0 0 -690.74 164.41 0zm62.22 166.48c0,-40.1 -19.92,-60.15 -59.64,-60.15l-62.99 0 0 221.19 62.99 0c16.56,0 30.66,-5.82 42.17,-17.59 11.64,-11.77 17.47,-26 17.47,-42.56l0 -100.89zm212.13 524.26l0 -691.51 296.6 0 0 104.77 -192.6 0 0 188.6 140.48 0 0 104.77 -140.48 0 0 188.6 192.6 0 0 104.77 -296.6 0zm472.26 0l-104 0 0 -691.51 149.66 0 97.14 497.87 93.65 -497.87 143.07 0 0 691.51 -104 0 0 -434.36 -90.68 434.36 -83.82 0 -101.02 -433.2 0 433.2zm576.52 0l-104 0 0 -690.74 104 0 0 690.74zm257.41 7.76c-45.92,0 -84.86,-16.04 -116.81,-47.99 -31.95,-31.95 -47.86,-70.75 -47.86,-116.29l0 -534.22 101.67 0 0 533.32c0,16.56 5.82,30.66 17.59,42.3 11.77,11.51 25.87,17.33 42.43,17.33 16.56,0 30.53,-5.82 42.17,-17.33 11.51,-11.64 17.33,-25.74 17.33,-42.3l0 -533.32 108.66 0 0 534.22c0,46.31 -16.17,85.25 -48.51,116.81 -32.21,31.69 -71.14,47.47 -116.67,47.47zm362.05 -7.76l-104 0 0 -691.51 149.66 0 97.14 497.87 93.65 -497.87 143.07 0 0 691.51 -104 0 0 -434.36 -90.68 434.36 -83.82 0 -101.02 -433.2 0 433.2zm-2587.3 855.28c0.78,48.12 -11.77,89.25 -37.51,123.4 -16.94,23.16 -40.74,39.45 -71.66,49.03 -16.56,5.17 -35.83,7.76 -57.82,7.76 -40.87,0 -74.64,-10.09 -101.54,-30.4 -22.38,-16.56 -40.1,-39.06 -53.16,-67.52 -13.07,-28.59 -20.7,-61.19 -22.9,-98.05l99.08 -7.11c4.53,40.22 15.14,69.33 31.95,87.44 12.55,13.71 26.91,20.18 43.08,19.4 22.76,-0.78 40.87,-11.9 54.46,-33.63 6.98,-10.74 10.47,-25.87 10.47,-45.79 0,-28.72 -13.06,-57.18 -39.19,-85.5 -20.57,-19.41 -51.35,-48.64 -92.49,-87.7 -34.53,-33.38 -58.98,-63.39 -73.34,-89.9 -15.39,-29.75 -23.15,-62.09 -23.15,-97.02 0,-62.86 21.08,-110.46 63.38,-142.8 26.13,-19.53 58.47,-29.24 97.14,-29.24 37.13,0 68.95,8.28 95.33,24.84 20.57,12.81 37.26,30.79 49.93,53.94 12.68,23.02 20.31,49.67 22.9,79.81l-99.99 18.11c-2.97,-28.07 -11.12,-50.06 -24.32,-65.84 -9.57,-11.25 -23.41,-16.95 -41.52,-16.95 -19.14,0 -33.63,8.41 -43.59,25.36 -8.15,13.58 -12.16,30.52 -12.16,50.7 0,31.56 13.58,63.77 40.87,96.37 10.35,12.55 25.88,27.29 46.44,44.11 24.32,20.31 40.36,34.41 48.12,42.43 25.74,25.74 45.66,51.09 59.63,76.06 6.73,11.77 12.03,22.63 16.04,32.59 9.96,24.58 15.14,46.57 15.52,66.1zm86.41 171.65l0 -691.51 296.6 0 0 104.77 -192.6 0 0 188.6 140.48 0 0 104.77 -140.48 0 0 188.6 192.6 0 0 104.77 -296.6 0zm652.19 0l-283.93 0 0 -690.74 104 0 0 586.74 179.93 0 0 104zm71.66 0l0 -691.51 296.6 0 0 104.77 -192.6 0 0 188.6 140.48 0 0 104.77 -140.48 0 0 188.6 192.6 0 0 104.77 -296.6 0zm533.44 8.54c-45.92,0 -84.85,-16.04 -116.93,-48.25 -32.21,-32.08 -48.25,-71.02 -48.25,-116.55l0 -376.93c0,-45.92 16.17,-84.98 48.51,-117.06 32.21,-32.21 71.14,-48.25 116.67,-48.25 45.92,0 84.86,16.17 116.81,48.51 31.95,32.34 47.86,71.27 47.86,116.93l0 78.91 -107.88 0 0 -81.11c0,-16.42 -5.82,-30.65 -17.59,-42.42 -11.77,-11.78 -25.87,-17.6 -42.43,-17.6 -16.56,0 -30.53,5.82 -42.17,17.6 -11.51,11.77 -17.33,25.87 -17.33,42.42l0 377.97c0,16.56 5.82,30.53 17.33,42.17 11.64,11.51 25.61,17.33 42.17,17.33 16.56,0 30.66,-5.82 42.43,-17.33 11.77,-11.52 17.59,-25.61 17.59,-42.17l0 -95.2 107.88 0 0 96.36c0,45.92 -16.17,84.86 -48.51,116.81 -32.21,31.95 -71.01,47.86 -116.16,47.86zm347.7 -594.5l-110.98 0 0 -104.78 325.19 0 0 104.78 -110.21 0 0 585.96 -104 0 0 -585.96zm402.03 585.96l-104 0 0 -690.74 104 0 0 690.74zm256.9 -699.28c45.92,0 84.85,16.17 116.93,48.51 32.21,32.34 48.25,71.27 48.25,116.81l0 377.19c0,45.92 -16.17,84.98 -48.51,117.06 -32.21,32.21 -71.14,48.25 -116.67,48.25 -45.92,0 -84.86,-16.17 -116.81,-48.51 -31.95,-32.34 -47.86,-71.27 -47.86,-116.8l0 -377.19c0,-45.92 16.17,-84.99 48.51,-117.07 32.21,-32.21 71.01,-48.25 116.16,-48.25zm56.52 163.51c0,-16.56 -5.82,-30.53 -17.33,-42.17 -11.64,-11.52 -25.61,-17.34 -42.17,-17.34 -16.56,0 -30.66,5.82 -42.43,17.34 -11.77,11.64 -17.59,25.61 -17.59,42.17l0 377.7c0,16.56 5.82,30.53 17.59,42.17 11.77,11.51 25.87,17.33 42.43,17.33 16.56,0 30.53,-5.82 42.17,-17.33 11.51,-11.64 17.33,-25.61 17.33,-42.17l0 -377.7zm317.56 -155.74l138.28 464.11 0 -464.11 104 0 0 691.51 -111.89 0 -143.45 -442.64 0 442.64 -104 0 0 -691.51 117.06 0z"></path>
  </g>
 </g>
</svg>