<svg xmlns="http://www.w3.org/2000/svg" viewBox="6085 4631 8830 11738" fill="currentColor" aria-hidden="true"><path d="M8423.72 7842.92l647.42 0c318.36,0 590.2,-25.62 815.84,-77.04 221.22,-50.41 397.8,-125.31 530.04,-224.85 129.03,-96.95 226.13,-224.2 291.09,-381.36 66.27,-160.32 99.5,-352.71 99.5,-576.76 0,-241.67 -33.83,-449.28 -101.28,-622.96 -66.09,-170.19 -164.83,-308.68 -295.98,-415.55 -133.72,-107.51 -309.41,-188.59 -527.04,-243.18 -221.96,-55.67 -487.02,-83.51 -795.15,-83.51 -166.83,0 -299.79,6.62 -399.05,19.67 -92.31,12.14 -152.78,28.37 -181.6,48.54 -25.63,17.94 -45.47,46 -59.48,84.25 -16.2,44.25 -24.31,101.42 -24.31,171.65l0 2301.1zm3500.55 -3059.72l-4294.01 11485.73 -140.04 -52.14 1887.8 -5049.54 -3192.67 0 0 -342.47 72.95 -2.15c258.5,-7.59 468.47,-28 629.86,-61.18 152.42,-31.34 257.71,-72.78 315.81,-124.27 56.38,-49.97 99.73,-134.84 130,-254.57 32.46,-128.4 48.71,-294.08 48.71,-496.98l0 -3732.77c0,-201.12 -16.25,-365.53 -48.71,-493.38 -30.3,-119.35 -73.84,-204.43 -130.59,-255.37 -58.1,-52.16 -163.19,-93.88 -315.22,-125.32 -161.39,-33.36 -371.37,-53.78 -629.86,-61.37l-72.95 -2.14 0 -342.49 2876.51 0c459.29,0 868.81,36.01 1228.67,107.82 363,72.44 675.97,181.5 939.06,326.96l0.29 0.3c99.89,55.7 190.49,115.35 271.81,178.93l282.54 -755.74 140.04 52.14zm-2416.06 6035.81l1034.13 -2766.1c-44.19,10.69 -89.28,20.75 -135.26,30.16 -340.75,69.78 -730.07,104.77 -1167.32,104.77l-816.04 0 0 1697.79c0,204.37 16.87,370.84 50.41,499.39 31.4,120.33 76.52,205.67 135.15,255.92 60.29,51.68 172.75,92.92 337.47,123.68 148.32,27.7 335.45,45.84 561.46,54.39zm4572.44 -1330.39l260.63 0 0 2671.5 -316.6 0 -15.81 -54.2c-113.88,-390.55 -246.1,-734.06 -396.62,-1030.27 -149.07,-293.35 -315.96,-539.64 -500.63,-738.63l0 -0.3c-182.57,-197.47 -379.73,-345.26 -591.46,-443.51 -210.32,-97.59 -435.8,-146.31 -676.37,-146.31 -163.71,0 -312.2,23.31 -445.24,69.92 -131.98,46.24 -249.63,115.51 -352.68,207.76 -102.44,91.68 -178.96,195.26 -229.72,310.87 -50.8,115.68 -76.12,244.58 -76.12,386.82 0,328 127.11,596.77 381.3,810.58l0.14 -0.17c131.42,109.77 321.61,220.06 570.72,330.66 251.12,111.5 562.95,223.44 935.63,335.63l0.58 0.3c425.78,130.47 781.55,263.63 1067.2,399.81 290.07,138.3 510.59,281.08 661.51,428.65 152.66,148.58 267.35,324.07 343.78,526.18 75.76,200.34 113.75,426.02 113.75,676.8 0,267.93 -45.56,514.39 -136.86,739.53 -91.37,225.29 -228.43,428.51 -411.36,609.83 -181.7,180.9 -387.06,316.59 -615.43,407.23 -228.67,90.77 -479.1,136.06 -750.65,136.06 -157.29,0 -306.62,-12.38 -448.54,-37.33 -141.6,-24.89 -276.32,-62.68 -404.71,-113.52l-0.06 0.16c-126.87,-49.77 -255.03,-116.62 -384.44,-200.1 -128.86,-83.11 -258.75,-182.44 -389.63,-297.56l-0.88 -0.88c-70.53,-64.39 -130.87,-116.8 -181.16,-157.37 -49.05,-39.57 -88.48,-67.99 -118.43,-85.4 -28.03,-15.62 -54.98,-27.2 -80.76,-34.74 -24.36,-7.13 -48.39,-10.7 -72.01,-10.7 -39.01,0 -76.22,13.48 -111.7,40.27 -40.84,30.83 -79.89,78.59 -117.27,143.1l0.09 0.05c-39.78,69.44 -74.26,153.33 -103.39,251.4 -29.91,100.71 -54.31,216.43 -73.16,346.9l-9.31 64.45 -337.26 0c35.22,-966.3 70.64,-1932.6 106.03,-2898.9l359.79 0 11.66 61.23c73.77,387.1 183.59,737.24 329.05,1049.96 144.86,311.44 325.25,585.69 540.72,822.33 214.23,235.29 440.71,411.5 679.55,528.4 236.93,115.96 487.43,174.05 751.68,174.05 187.01,0 356.47,-25.66 508.33,-76.76 150.95,-50.8 285.52,-127 403.68,-228.39 116.8,-100.96 204.24,-215.29 262.3,-343.05 58.15,-127.97 87.24,-270.5 87.24,-427.72 0,-168.86 -32.01,-321.98 -96.01,-459.09 -64.06,-137.24 -160.77,-260.1 -290.07,-368.33l-0.29 -0.29c-131.7,-111.6 -327.24,-225.48 -586.4,-341.96 -262.68,-118.06 -590.24,-238.43 -982.42,-361.47 -375.74,-117.7 -696.77,-241.77 -963.26,-372.55 -269.35,-132.19 -482.72,-271.27 -640.23,-417.6 -159.51,-148.92 -279.27,-318.91 -359.25,-509.88 -79.7,-190.32 -119.56,-400.61 -119.56,-630.86 0,-252.09 42.93,-486.57 128.97,-703.16 85.87,-216.17 214.35,-413.21 385.59,-590.88 171.77,-178.23 363.79,-311.92 576,-401.22 212.4,-89.37 443.67,-133.96 693.8,-133.96 132.12,0 259.59,11.32 382.61,34.14 122.65,22.75 239.99,57.02 352.14,102.96 112.18,45.14 221.27,103.04 327.2,173.39 105.96,70.36 209.02,153.33 309.14,248.64l3.23 3.22c10.35,11.16 22.92,24.11 37.59,38.96 15.83,16.03 34.13,34.33 54.71,54.9 76.79,76.05 144.16,132.69 202.24,169.68 50.28,32.03 91.09,48.13 122.48,48.13 85.59,0 153.45,-42.9 202.38,-128.64l-0.09 -0.05c28.67,-51.06 56.12,-124.99 82.31,-222.11 27.41,-101.69 52.85,-226.03 76.26,-373.31l10.07 -63.28 63.76 0z"></path></svg>